# xmcd CD database file
# Copyright (C) 1993-1998 Ti Kan
#
# Track frame offsets:
#	150
#	13160
#	24970
#	38325
#	50393
#	63290
#	77458
#	90395
#	102103
#	115015
#	127620
#	139775
#	151768
#	162845
#	175503
#	190223
#	203183
#
# Disc length: 2861 seconds
#
# Revision: 1
# Processed by: cddbd v1.4b41PL1 Copyright (c) Steve Scherf et al.
# Submitted via: CDValet v3.31 - Copyright (c) 1997 Greg Leichner
#
DISCID=b80b2b11
DTITLE=Selection Of LOS PANCHOS - CD I
DYEAR=1900
DGENRE=
TTITLE0=Caminemos
TTITLE1=La Mucura
TTITLE2=Sin Un Amor
TTITLE3=Perdida
TTITLE4=Parece Que A Llover
TTITLE5=No Me Quieras Tanto
TTITLE6=La Hiedra
TTITLE7=Sólo
TTITLE8=Recuerdos De Ti
TTITLE9=Ya Es Muy Tarde
TTITLE10=Ay Mi Vida
TTITLE11=Hasta Mañana
TTITLE12=El Pecador
TTITLE13=Te Fuiste
TTITLE14=Alma Corazón y Vida
TTITLE15=Mar y Cielo
TTITLE16=Depende De Ti
EXTD=
EXTT0=
EXTT1=
EXTT2=
EXTT3=
EXTT4=
EXTT5=
EXTT6=
EXTT7=
EXTT8=
EXTT9=
EXTT10=
EXTT11=
EXTT12=
EXTT13=
EXTT14=
EXTT15=
EXTT16=
PLAYORDER=
